<svg width="298" height="282" xmlns="http://www.w3.org/2000/svg" xmlns:xlink="http://www.w3.org/1999/xlink" overflow="hidden"><defs><clipPath id="clip0"><rect x="515" y="219" width="298" height="282"/></clipPath><clipPath id="clip1"><rect x="516" y="220" width="296" height="280"/></clipPath><clipPath id="clip2"><rect x="516" y="220" width="296" height="280"/></clipPath><clipPath id="clip3"><rect x="467" y="220" width="345" height="280"/></clipPath></defs><g clip-path="url(#clip0)" transform="translate(-515 -219)"><g clip-path="url(#clip1)"><g clip-path="url(#clip2)"><g clip-path="url(#clip3)"><path d="M59.8988 249.579 339.427 249.579" stroke="#000000" stroke-width="0.998314" stroke-opacity="0.3" fill="none" transform="matrix(1 0 0 1.00169 467.582 220)"/><path d="M59.8988 222.956 339.427 222.956" stroke="#000000" stroke-width="0.998314" stroke-opacity="0.3" fill="none" transform="matrix(1 0 0 1.00169 467.582 220)"/><path d="M59.8988 196.335 339.427 196.335" stroke="#000000" stroke-width="0.998314" stroke-opacity="0.3" fill="none" transform="matrix(1 0 0 1.00169 467.582 220)"/><path d="M59.8988 169.713 339.427 169.713" stroke="#000000" stroke-width="0.998314" stroke-opacity="0.3" fill="none" transform="matrix(1 0 0 1.00169 467.582 220)"/><path d="M59.8988 143.091 339.427 143.091" stroke="#000000" stroke-width="0.998314" stroke-opacity="0.3" fill="none" transform="matrix(1 0 0 1.00169 467.582 220)"/><path d="M59.8988 116.47 339.427 116.47" stroke="#000000" stroke-width="0.998314" stroke-opacity="0.3" fill="none" transform="matrix(1 0 0 1.00169 467.582 220)"/><path d="M59.8988 89.8483 339.427 89.8483" stroke="#000000" stroke-width="0.998314" stroke-opacity="0.3" fill="none" transform="matrix(1 0 0 1.00169 467.582 220)"/><path d="M59.8988 63.2265 339.427 63.2265" stroke="#000000" stroke-width="0.998314" stroke-opacity="0.3" fill="none" transform="matrix(1 0 0 1.00169 467.582 220)"/><path d="M59.8988 36.6049 339.427 36.6049" stroke="#000000" stroke-width="0.998314" stroke-opacity="0.3" fill="none" transform="matrix(1 0 0 1.00169 467.582 220)"/><path d="M59.8988 9.98314 339.427 9.98314" stroke="#000000" stroke-width="0.998314" stroke-opacity="0.3" fill="none" transform="matrix(1 0 0 1.00169 467.582 220)"/><path d="M102.153 255.568 102.153 249.579" stroke="#000000" stroke-width="1.99663" fill="none" transform="matrix(1 0 0 1.00169 467.582 220)"/><path d="M79.4008 249.579 79.4008 143.091 124.905 143.091 124.905 249.579" fill="#11ACCD" transform="matrix(1 0 0 1.00169 467.582 220)"/><path d="M167.16 255.568 167.16 249.579" stroke="#000000" stroke-width="1.99663" fill="none" transform="matrix(1 0 0 1.00169 467.582 220)"/><path d="M144.407 249.579 144.407 143.091 189.912 143.091 189.912 249.579" fill="#11ACCD" transform="matrix(1 0 0 1.00169 467.582 220)"/><path d="M232.166 255.568 232.166 249.579" stroke="#000000" stroke-width="1.99663" fill="none" transform="matrix(1 0 0 1.00169 467.582 220)"/><path d="M209.413 249.579 209.413 63.2265 254.918 63.2265 254.918 249.579" fill="#11ACCD" transform="matrix(1 0 0 1.00169 467.582 220)"/><path d="M297.172 255.568 297.172 249.579" stroke="#000000" stroke-width="1.99663" fill="none" transform="matrix(1 0 0 1.00169 467.582 220)"/><path d="M274.421 249.579 274.421 36.6049 319.925 36.6049 319.925 249.579" fill="#11ACCD" transform="matrix(1 0 0 1.00169 467.582 220)"/><path d="M59.8988 249.579 339.427 249.579" stroke="#000000" stroke-width="1.99663" fill="none" transform="matrix(1 0 0 1.00169 467.582 220)"/><path d="M59.8988 249.579 59.8988 9.98314" stroke="#000000" stroke-width="1.99663" fill="none" transform="matrix(1 0 0 1.00169 467.582 220)"/></g></g></g></g></svg>